<?xml version="1.0" encoding="UTF-8"?>
<svg id="Layer_1" xmlns="http://www.w3.org/2000/svg" version="1.1" viewBox="0 0 600 400">
  <!-- Generator: Adobe Illustrator 29.4.0, SVG Export Plug-In . SVG Version: 2.1.0 Build 152)  -->
  <defs>
    <style>
      .st0 {
        fill: #c3952d;
        opacity: 0;
      }

      .st1 {
        fill: #c4950c;
      }
    </style>
  </defs>
  <path class="st0" d="M127.82,202.36h-1.28c-.11,2.19-.42,4-.92,5.4-.5,1.41-1.29,2.63-2.37,3.66-1.23,1.2-2.74,2.01-4.54,2.43s-4.61.63-8.4.63h-22.28c0-3.54.22-6.44.64-8.7.43-2.25,1.11-4.15,2.03-5.69,1.27-2.08,2.94-3.63,5-4.65,2.07-1.02,5-1.75,8.79-2.17v-1.39l-33.83-.35-.06,1.33c2.79.23,5.06.69,6.79,1.38,1.72.7,3.22,1.72,4.49,3.07,2.94,3.08,4.41,8.03,4.41,14.85v2.31h-32.94v-8.96c0-4.31.2-7.7.61-10.16.41-2.47,1.13-4.65,2.18-6.54,1.78-3.27,4.3-5.81,7.54-7.63,1.41-.81,3.53-1.7,6.36-2.65l-.28-1.33-18.14,1.68v60.38h1.28c.14-2.89.65-5.14,1.51-6.76,1.6-2.93,4.04-4.58,7.31-4.97,2.57-.27,5.04-.4,7.42-.4h41.15c3.53,0,6.31.23,8.32.69,2.01.46,3.59,1.23,4.75,2.32.97.92,1.74,2.21,2.32,3.87.58,1.66.87,3.41.87,5.26h1.28v-36.92Z"/>
  <path class="st0" d="M547.1,202.36c-.11,2.19-.42,4-.92,5.4-.5,1.41-1.29,2.63-2.37,3.66-1.23,1.2-2.74,2.01-4.54,2.43s-4.61.63-8.4.63h-22.28c0-3.54.22-6.44.64-8.7.43-2.25,1.11-4.15,2.03-5.69,1.27-2.08,2.94-3.63,5-4.65,2.07-1.02,5-1.75,8.79-2.17v-1.39l-33.83-.35-.06,1.33c2.79.23,5.06.69,6.79,1.38,1.72.7,3.22,1.72,4.49,3.07,2.94,3.08,4.41,8.03,4.41,14.85v2.31h-32.94v-8.96c0-4.31.2-7.7.61-10.16.41-2.47,1.13-4.65,2.18-6.54,1.78-3.27,4.3-5.81,7.54-7.63,1.41-.81,3.53-1.7,6.36-2.65l-.28-1.33-18.14,1.68v60.38h1.28c.14-2.89.65-5.14,1.51-6.76,1.6-2.93,4.04-4.58,7.32-4.97,2.57-.27,5.04-.4,7.42-.4h41.15c3.53,0,6.31.23,8.32.69,2.01.46,3.59,1.23,4.75,2.32.97.92,1.74,2.21,2.32,3.87.58,1.66.87,3.41.87,5.26h1.28v-36.92h-1.28Z"/>
  <path class="st0" d="M251.66,71.81c-2.19-.11-4-.42-5.4-.92-1.41-.5-2.63-1.29-3.66-2.37-1.2-1.23-2.01-2.74-2.43-4.54-.43-1.8-.63-4.61-.63-8.4v-22.28c3.54,0,6.44.22,8.7.64,2.25.43,4.15,1.11,5.69,2.03,2.08,1.27,3.63,2.94,4.65,5,1.02,2.07,1.75,5,2.17,8.79h1.38l.35-33.83-1.33-.06c-.23,2.79-.69,5.06-1.38,6.79-.7,1.72-1.72,3.22-3.07,4.49-3.08,2.94-8.03,4.41-14.85,4.41h-2.31V-1.38h8.96c4.31,0,7.7.2,10.16.61,2.47.41,4.65,1.13,6.54,2.18,3.27,1.78,5.81,4.3,7.62,7.54.81,1.41,1.7,3.53,2.65,6.36l1.33-.28-1.68-18.14h-60.38v1.28c2.89.14,5.14.65,6.76,1.51,2.93,1.6,4.58,4.04,4.97,7.31.27,2.57.4,5.04.4,7.42v41.15c0,3.53-.23,6.31-.69,8.32-.46,2.01-1.23,3.59-2.32,4.75-.92.97-2.21,1.74-3.87,2.32-1.66.58-3.41.87-5.26.87v1.28h36.92v-1.28Z"/>
  <path class="st0" d="M262.09,326.9h-47.36v1.28c2.89.14,5.14.65,6.76,1.51,2.93,1.6,4.58,4.04,4.97,7.31.27,2.57.4,5.04.4,7.42v41.15c0,3.53-.23,6.31-.69,8.32-.46,2.01-1.23,3.59-2.32,4.75-.92.97-2.21,1.74-3.87,2.32-1.66.58-3.41.87-5.26.87v1.28h36.92v-1.28c-2.19-.11-4-.42-5.4-.92-1.41-.5-2.63-1.29-3.66-2.37-1.2-1.23-2.01-2.74-2.43-4.54-.43-1.8-.63-4.61-.63-8.4v-22.28c3.54,0,6.44.22,8.7.64,2.25.43,4.15,1.11,5.69,2.03,2.08,1.27,3.63,2.94,4.65,5,1.02,2.07,1.75,5,2.17,8.79h1.38l.35-33.83-1.33-.06c-.23,2.79-.69,5.06-1.38,6.79-.7,1.72-1.72,3.22-3.07,4.49-3.08,2.94-8.03,4.41-14.85,4.41h-2.31v-32.94h8.96c4.31,0,7.7.2,10.16.61,2.47.41,4.65,1.13,6.54,2.18,3.27,1.78,5.81,4.3,7.62,7.54.81,1.41,1.7,3.53,2.65,6.36l1.33-.28-1.68-18.14h-13.02Z"/>
  <g>
    <g>
      <path class="st1" d="M152.66,247.9v22.33c0,3.8.21,6.61.64,8.42.43,1.81,1.24,3.33,2.43,4.56,1.04,1.08,2.27,1.87,3.68,2.38,1.41.5,3.21.81,5.42.92v1.29h-37.01v-1.29c1.85,0,3.61-.29,5.27-.87,1.66-.58,2.95-1.35,3.88-2.32,1.08-1.16,1.85-2.74,2.32-4.76.46-2.01.69-4.79.69-8.34v-41.24c0-2.39-.14-4.87-.41-7.44-.39-3.28-2.05-5.72-4.98-7.33-1.62-.86-3.88-1.36-6.78-1.51v-1.29h60.52l1.68,18.18-1.33.28c-.97-2.83-1.85-4.96-2.66-6.38-1.82-3.25-4.36-5.76-7.64-7.55-1.89-1.04-4.07-1.77-6.54-2.18-2.47-.41-5.87-.62-10.19-.62h-8.98v33.01h2.32c6.83,0,11.79-1.47,14.88-4.42,1.35-1.27,2.37-2.77,3.07-4.5.69-1.74,1.16-4,1.39-6.8l1.33.06-.35,33.91h-1.39c-.43-3.81-1.15-6.74-2.17-8.81-1.02-2.07-2.58-3.74-4.66-5.01-1.55-.93-3.45-1.61-5.7-2.04-2.26-.43-5.16-.64-8.72-.64Z"/>
      <path class="st1" d="M183.6,264.19c0-6.04,2.32-11.43,6.95-16.17,5.64-5.74,12.37-8.62,20.21-8.62s14.56,2.87,20.15,8.62c4.63,4.78,6.95,10.18,6.95,16.23s-2.2,11.28-6.6,15.95c-5.41,5.74-12.24,8.62-20.5,8.62s-15.11-2.87-20.56-8.62c-2.12-2.24-3.75-4.74-4.89-7.5-1.14-2.76-1.71-5.6-1.71-8.5ZM194.14,263.55c0,6.48,1.51,11.98,4.52,16.49,3.4,5.03,7.55,7.55,12.45,7.55,2.08,0,4.11-.56,6.08-1.68,1.97-1.12,3.67-2.68,5.1-4.7,1.51-2.09,2.72-4.7,3.65-7.85.93-3.15,1.39-6.19,1.39-9.14s-.49-6.14-1.48-9.25c-.98-3.11-2.31-5.78-3.97-8.02-3.17-4.21-7.05-6.32-11.64-6.32s-8.13,2.22-11.29,6.65c-3.2,4.43-4.81,9.85-4.81,16.26Z"/>
      <path class="st1" d="M252.46,248.01c1.39-2.35,2.95-4.12,4.69-5.31,3.2-2.2,6.85-3.3,10.94-3.3,2.51,0,4.42.54,5.73,1.62,1.2.97,1.8,2.16,1.8,3.58,0,1.04-.36,1.9-1.07,2.57-.71.67-1.63,1.01-2.75,1.01-1.31,0-2.45-.52-3.42-1.57l-1.8-1.9c-1.43-1.45-3.11-2.18-5.04-2.18-2.63,0-4.67,1.64-6.14,4.92-1.47,3.28-2.2,7.84-2.2,13.69v10.45l.06,4.25c0,2.53.15,4.39.46,5.56.31,1.17.91,2.15,1.8,2.93,1.08,1.01,3.07,1.77,5.97,2.29v1.17h-25.6v-1.17c2.32-.3,3.98-.71,4.98-1.25,1-.54,1.82-1.46,2.43-2.76.42-.85.72-2.14.9-3.87.17-1.73.26-4.22.26-7.49v-13.75c0-3.82-.1-6.5-.29-8.04-.19-1.54-.62-2.79-1.27-3.76-.66-1.04-1.45-1.79-2.37-2.25-.93-.46-2.26-.75-4-.86v-1.18l14.93-2.01c.66,3.35,1,6.22,1,8.61Z"/>
      <path class="st1" d="M292.13,240.24h14.71v2.13h-14.71v32.57c0,3.92.69,6.72,2.08,8.39.73.93,1.69,1.66,2.89,2.18,1.19.52,2.48.78,3.87.78,1.73,0,3.17-.34,4.33-1.03,1.15-.69,2.42-1.95,3.81-3.78l.87.73c-1.27,2.24-3.06,3.9-5.36,4.98-2.3,1.08-5.16,1.62-8.6,1.62-4.56,0-7.88-.86-9.96-2.57-1.12-.89-1.85-1.97-2.2-3.22-.35-1.25-.52-3.5-.52-6.74v-33.91h-6.2v-.9c2.51-.78,4.83-2.29,6.95-4.53,1.28-1.38,2.31-2.75,3.09-4.11.78-1.36,1.52-3.12,2.22-5.29l.58-1.85h2.16v14.55Z"/>
      <path class="st1" d="M351.96,288.81c-.5-2.27-.75-4.6-.75-6.98-4.83,4.66-10.54,6.98-17.14,6.98-4.83,0-8.71-1.14-11.64-3.41-2.86-2.24-4.29-5.4-4.29-9.5v-19.45l-.06-4.25c0-2.53-.16-4.38-.46-5.53-.31-1.16-.89-2.14-1.74-2.96-1.12-1.01-3.13-1.75-6.02-2.24v-1.23h17.03v28.37c0,3.99.14,6.95.43,8.87.29,1.92.82,3.5,1.59,4.73.85,1.27,2.06,2.27,3.64,2.99,1.58.73,3.35,1.09,5.32,1.09,2.16,0,4.18-.41,6.07-1.23,1.89-.82,3.37-1.94,4.45-3.35,1.12-1.45,1.86-3.13,2.22-5.03.37-1.9.55-5.03.55-9.39v-10.95l-.06-4.14c0-2.53-.15-4.38-.44-5.53-.29-1.16-.88-2.14-1.77-2.96-1.08-1.01-3.09-1.75-6.02-2.24v-1.23h17.03v30.35c0,3.84.11,6.53.32,8.08.21,1.55.63,2.8,1.24,3.77.69,1.04,1.51,1.8,2.43,2.26.93.47,2.26.75,4,.87v1.18l-15.93,2.07Z"/>
      <path class="st1" d="M387.45,239.4c.54,2.18.82,4.2.82,6.08v.9c4.79-4.65,10.48-6.98,17.08-6.98,4.94,0,8.92,1.12,11.93,3.35,2.97,2.2,4.46,5.33,4.46,9.39v23.7c0,2.53.15,4.39.46,5.56.31,1.17.91,2.15,1.8,2.94,1.08,1.01,3.07,1.77,5.96,2.29v1.17h-25.6v-1.17c2.32-.3,3.98-.72,4.98-1.26,1-.54,1.82-1.46,2.43-2.77.42-.86.72-2.15.9-3.88.17-1.73.26-4.22.26-7.46v-11.85c0-4.06-.14-7.04-.43-8.94-.29-1.9-.84-3.43-1.65-4.58-.88-1.3-2.16-2.32-3.81-3.05-1.66-.73-3.49-1.09-5.49-1.09-2.16,0-4.17.41-6.04,1.23-1.87.82-3.34,1.94-4.42,3.35-1.16,1.49-1.92,3.18-2.28,5.06-.37,1.88-.55,5-.55,9.36v10.95l.06,4.14c0,2.53.15,4.39.46,5.56.31,1.17.91,2.15,1.8,2.93,1.08,1.01,3.07,1.77,5.97,2.29v1.17h-25.6v-1.17c2.32-.3,3.98-.71,4.98-1.25,1-.54,1.82-1.46,2.43-2.76.42-.85.72-2.14.9-3.87.17-1.73.26-4.22.26-7.49v-13.75c0-3.82-.1-6.5-.29-8.04-.19-1.54-.62-2.79-1.27-3.76-.66-1.04-1.45-1.79-2.37-2.25-.93-.46-2.26-.75-4-.86v-1.18l15.86-2.01Z"/>
      <path class="st1" d="M437.85,257.36c-.15,1.83-.23,3.15-.23,3.97,0,3.24.49,6.42,1.47,9.51.98,3.1,2.32,5.67,4.01,7.72,1.73,2.09,3.88,3.73,6.44,4.92,2.56,1.19,5.24,1.79,8.05,1.79,2.08,0,4.05-.34,5.91-1.01,1.87-.67,3.41-1.6,4.65-2.8,1.39-1.31,2.58-3.39,3.58-6.27l1.22.39c-1,4.37-3.16,7.66-6.46,9.88-3.3,2.22-7.69,3.33-13.18,3.33-4.75,0-8.82-.73-12.22-2.18-3.4-1.46-6.27-3.69-8.63-6.72-3.28-4.22-4.92-9.4-4.92-15.55,0-8.39,3.11-14.98,9.32-19.75,4.52-3.47,9.67-5.2,15.46-5.2,3.09,0,5.95.53,8.57,1.6,2.63,1.06,4.84,2.6,6.66,4.62,2.82,3.13,4.23,7.05,4.23,11.75h-33.94ZM463.1,255.18c-.27-3.73-.98-6.6-2.13-8.62-1.04-1.83-2.42-3.27-4.15-4.34-1.73-1.06-3.57-1.6-5.53-1.6-3.3,0-6.2,1.38-8.68,4.14-2.48,2.76-3.95,6.23-4.41,10.41h24.9Z"/>
    </g>
    <path class="st1" d="M188.13,305.13h-2.75v20.73h12.95v-2.45h-10.21v-18.28ZM202.08,325.86h2.75v-20.73h-2.75v20.73ZM255.17,325.86h2.75v-20.73h-2.75v20.73ZM230.15,316.36h11.47v-2.43h-11.47v-6.35h12.24v-2.44h-14.99v20.73h15.47v-2.45h-12.72v-7.05ZM209.8,325.86h2.75v-9.42h9.72v-2.45h-9.72v-6.42h11.24v-2.44h-13.99v20.73ZM276.43,321.4l-10.89-16.27h-2.81v20.73h2.63v-16.29l10.89,16.29h2.81v-20.73h-2.63v16.27ZM408.77,316.36h11.47v-2.43h-11.47v-6.35h12.25v-2.44h-14.99v20.73h15.47v-2.45h-12.73v-7.05ZM397.68,322.53c-1.06.89-2.36,1.33-3.9,1.33-1.26,0-2.44-.32-3.52-.97-1.09-.65-1.88-1.64-2.4-2.95-.52-1.32-.77-2.86-.77-4.62,0-1.37.22-2.7.65-3.98.43-1.29,1.18-2.31,2.25-3.08,1.07-.76,2.4-1.14,4-1.14,1.39,0,2.53.34,3.45,1.03.91.69,1.61,1.79,2.09,3.29l2.7-.63c-.55-1.91-1.54-3.4-2.95-4.46-1.41-1.05-3.16-1.58-5.23-1.58-1.83,0-3.51.42-5.03,1.26-1.52.83-2.7,2.06-3.52,3.66-.82,1.61-1.23,3.49-1.23,5.65,0,1.98.36,3.83,1.09,5.56.73,1.73,1.8,3.04,3.19,3.95,1.4.91,3.22,1.36,5.45,1.36s3.99-.59,5.48-1.77c1.49-1.19,2.53-2.9,3.11-5.16l-2.74-.69c-.38,1.74-1.1,3.06-2.17,3.94ZM377.82,321.4l-10.89-16.27h-2.82v20.73h2.63v-16.29l10.89,16.29h2.82v-20.73h-2.63v16.27ZM292.01,183.83l-31.88-31.92v-2.81s2.85,0,2.85,0l31.89,31.82.07.07c3.93,3.49,9,5.42,14.28,5.42,11.86,0,21.5-9.64,21.5-21.49,0-7.8-4.23-14.91-10.85-18.68,6.61-3.81,10.85-10.9,10.85-18.64,0-11.86-9.65-21.51-21.5-21.51-5.26,0-10.33,1.93-14.27,5.43l-31.91,31.87h-2.91s0-1.52,0-1.52v-1.26s31.82-31.88,31.82-31.88l.07-.07c3.5-3.94,5.42-9.01,5.42-14.28,0-11.86-9.64-21.5-21.5-21.5-7.79,0-14.89,4.24-18.67,10.85-3.81-6.61-10.9-10.85-18.65-10.85-11.85,0-21.5,9.65-21.5,21.5,0,5.26,1.93,10.33,5.42,14.28l31.88,31.91v2.84s-2.76,0-2.76,0l-31.89-31.82-.07-.07c-3.94-3.49-9.01-5.42-14.28-5.42-11.86,0-21.5,9.64-21.5,21.49,0,7.8,4.23,14.9,10.84,18.67-6.61,3.81-10.84,10.91-10.84,18.65,0,11.86,9.65,21.5,21.5,21.5,5.26,0,10.33-1.93,14.28-5.43l31.91-31.87h2.82s0,2.77,0,2.77l-31.82,31.88-.07.07c-3.5,3.94-5.42,9.01-5.42,14.27,0,11.86,9.64,21.5,21.49,21.5,7.8,0,14.91-4.23,18.68-10.84,3.81,6.61,10.91,10.84,18.65,10.84,11.86,0,21.5-9.65,21.5-21.5,0-5.25-1.93-10.32-5.42-14.27ZM298.28,116.15c2.95-2.83,6.84-4.39,10.93-4.39,8.73,0,15.83,7.1,15.83,15.83s-7.1,15.82-15.82,15.82l-37.9-.02,26.97-27.24ZM309.22,149.08c8.73,0,15.83,7.1,15.83,15.83s-7.1,15.82-15.83,15.82c-4.1,0-7.98-1.56-10.9-4.36l-27.03-27.27h37.93ZM216.35,176.32c-2.95,2.83-6.83,4.39-10.93,4.39-8.73,0-15.82-7.1-15.82-15.82s7.1-15.83,15.82-15.83l37.9.02-26.97,27.24ZM205.42,143.39c-8.73,0-15.82-7.1-15.82-15.83s7.1-15.82,15.82-15.82c4.1,0,7.98,1.56,10.9,4.35l27.03,27.28h-37.94ZM238.61,213.92c-8.72,0-15.82-7.1-15.82-15.83,0-4.09,1.56-7.98,4.36-10.91l27.27-27.03v37.94c0,8.73-7.09,15.83-15.81,15.83ZM254.43,132.26l-27.24-26.97c-2.84-2.96-4.4-6.84-4.4-10.93,0-8.73,7.1-15.82,15.83-15.82s15.83,7.1,15.83,15.82l-.02,37.91ZM275.94,78.53c8.72,0,15.82,7.1,15.82,15.82,0,4.1-1.56,7.98-4.36,10.9l-27.28,27.04v-37.94c0-8.73,7.09-15.82,15.81-15.82ZM275.93,213.92c-8.72,0-15.82-7.1-15.82-15.83v-37.9s27.25,26.96,27.25,26.96c2.83,2.97,4.39,6.85,4.39,10.94,0,8.73-7.1,15.83-15.83,15.83ZM295.71,314.94c-.83-.38-2.36-.82-4.6-1.32-2.22-.5-3.61-1-4.14-1.48-.53-.48-.81-1.09-.81-1.84,0-.86.38-1.59,1.14-2.2.76-.6,1.97-.91,3.63-.91s2.8.34,3.62,1c.82.67,1.29,1.66,1.44,2.97l2.63-.2c-.05-1.21-.39-2.3-1.02-3.26-.63-.96-1.53-1.69-2.7-2.18-1.18-.5-2.53-.75-4.07-.75-1.4,0-2.66.24-3.8.71-1.14.48-2.01,1.17-2.6,2.08-.6.91-.89,1.88-.89,2.93,0,.96.24,1.82.73,2.58.48.76,1.22,1.41,2.21,1.93.76.41,2.1.84,4,1.29,1.91.45,3.14.79,3.7,1.01.86.33,1.48.74,1.86,1.23.38.48.57,1.05.57,1.7s-.2,1.23-.59,1.78c-.39.54-.98.97-1.79,1.28-.8.31-1.72.46-2.77.46-1.18,0-2.24-.2-3.18-.61-.94-.41-1.64-.95-2.09-1.61-.45-.67-.74-1.52-.86-2.56l-2.59.23c.04,1.39.41,2.63,1.13,3.73.72,1.09,1.72,1.92,2.99,2.46,1.27.55,2.84.82,4.72.82,1.48,0,2.81-.27,4-.81,1.18-.54,2.09-1.3,2.72-2.28.63-.97.94-2.01.94-3.12s-.29-2.1-.86-2.95c-.57-.85-1.47-1.56-2.67-2.12ZM350.5,305.13l-7.96,20.73h2.91l2.27-6.28h8.67l2.42,6.28h3.13l-8.48-20.73h-2.96ZM348.53,317.35l2.28-6.08c.48-1.31.85-2.63,1.11-3.96.32,1.12.81,2.56,1.47,4.3l2.17,5.74h-7.03ZM316.59,317.09c0,2.6-.43,4.36-1.29,5.27-.86.92-2.29,1.38-4.31,1.38-1.18,0-2.17-.23-2.99-.7-.82-.46-1.39-1.12-1.73-1.97-.33-.85-.5-2.18-.5-3.98v-11.96h-2.74v11.98c0,2.2.26,3.93.79,5.2.53,1.27,1.41,2.24,2.65,2.91,1.23.67,2.82,1,4.77,1s3.61-.38,4.84-1.15c1.23-.77,2.08-1.76,2.55-2.99.47-1.23.71-2.88.71-4.97v-11.98h-2.75v11.96ZM336.34,317.46c-.38-.34-.93-.69-1.66-1.04,1.99-.27,3.46-.91,4.41-1.92.96-1.01,1.43-2.25,1.43-3.72,0-1.14-.29-2.18-.86-3.13-.58-.94-1.35-1.6-2.31-1.97-.96-.37-2.37-.56-4.21-.56h-9.19v20.73h2.75v-9.21h3.18c.71,0,1.22.03,1.53.1.42.1.84.29,1.25.55.41.27.87.73,1.39,1.39.52.66,1.18,1.61,1.98,2.86l2.74,4.32h3.45l-3.6-5.65c-.72-1.1-1.48-2.02-2.28-2.75ZM332.59,314.28h-5.89v-6.86h6.56c1.54,0,2.66.32,3.37.95.71.63,1.07,1.45,1.07,2.42,0,.67-.19,1.29-.55,1.86-.37.57-.9.98-1.62,1.24-.7.26-1.69.38-2.94.38Z"/>
  </g>
</svg>