<?xml version="1.0" encoding="UTF-8"?>
<svg id="Layer_1" xmlns="http://www.w3.org/2000/svg" version="1.1" viewBox="0 0 400 400">
  <!-- Generator: Adobe Illustrator 29.4.0, SVG Export Plug-In . SVG Version: 2.1.0 Build 152)  -->
  <defs>
    <style>
      .st0 {
        fill: #c4950c;
      }
    </style>
  </defs>
  <path class="st0" d="M287.65,294.99l-80.53-80.65v-7.1s7.2,0,7.2,0l80.56,80.38.18.17c9.92,8.83,22.73,13.69,36.07,13.69,29.96,0,54.32-24.35,54.32-54.28,0-19.71-10.69-37.66-27.4-47.2,16.7-9.62,27.4-27.54,27.4-47.09,0-29.96-24.37-54.34-54.32-54.34-13.3,0-26.11,4.87-36.06,13.72l-80.62,80.51h-7.34s0-3.85,0-3.85v-3.19s80.38-80.54,80.38-80.54l.17-.18c8.84-9.95,13.7-22.77,13.7-36.08,0-29.95-24.36-54.32-54.31-54.32-19.69,0-37.63,10.7-47.17,27.41-9.63-16.71-27.54-27.41-47.12-27.41-29.95,0-54.32,24.37-54.32,54.32,0,13.29,4.87,26.1,13.69,36.08l80.54,80.62v7.16s-6.98,0-6.98,0l-80.56-80.38-.18-.17c-9.96-8.83-22.76-13.69-36.07-13.69-29.95,0-54.32,24.35-54.32,54.29,0,19.71,10.7,37.65,27.4,47.18-16.7,9.63-27.4,27.56-27.4,47.12,0,29.95,24.37,54.32,54.32,54.32,13.3,0,26.11-4.87,36.07-13.72l80.61-80.51h7.12s0,7,0,7l-80.38,80.55-.17.18c-8.83,9.96-13.7,22.76-13.7,36.06,0,29.95,24.36,54.32,54.3,54.32,19.71,0,37.66-10.69,47.18-27.39,9.63,16.7,27.55,27.39,47.11,27.39,29.95,0,54.32-24.37,54.32-54.32,0-13.27-4.87-26.07-13.7-36.05ZM303.5,124.01c7.46-7.15,17.27-11.09,27.62-11.09,22.05,0,39.99,17.94,39.99,39.99s-17.94,39.97-39.98,39.97l-95.76-.04,68.13-68.82ZM331.12,207.21c22.05,0,39.99,17.94,39.99,39.99s-17.94,39.97-39.99,39.97c-10.36,0-20.17-3.94-27.54-11.03l-68.29-68.9,95.84-.03ZM96.5,276.03c-7.45,7.16-17.26,11.1-27.62,11.1-22.04,0-39.98-17.93-39.98-39.97s17.94-40,39.98-40l95.76.06-68.13,68.81ZM68.88,192.85c-22.04,0-39.98-17.94-39.98-39.98s17.94-39.96,39.98-39.96c10.36,0,20.17,3.93,27.55,11l68.29,68.92-95.84.03ZM152.73,371.03c-22.04,0-39.97-17.94-39.97-39.98,0-10.34,3.95-20.15,11.02-27.56l68.9-68.29v95.84c.01,22.05-17.91,39.98-39.95,39.98ZM192.7,164.72l-68.81-68.14c-7.17-7.47-11.12-17.28-11.12-27.62,0-22.04,17.94-39.98,39.98-39.98s39.99,17.93,39.99,39.97l-.04,95.77ZM247.04,28.98c22.04,0,39.97,17.93,39.97,39.98,0,10.36-3.94,20.17-11.01,27.55l-68.92,68.3v-95.85c-.01-22.04,17.91-39.98,39.95-39.98ZM247.02,371.03c-22.04,0-39.97-17.94-39.97-39.98l.03-95.76,68.82,68.11c7.16,7.5,11.1,17.32,11.1,27.64,0,22.05-17.94,39.98-39.98,39.98Z"/>
</svg>